<svg width="60" height="52" viewBox="0 0 60 52" fill="none" xmlns="http://www.w3.org/2000/svg">
<path d="M29.9172 47.3562C30.76 47.3562 31.1814 46.9956 31.1814 46.2743V40.1437C31.1814 39.4224 30.76 39.0618 29.9172 39.0618C29.0745 39.0618 28.6531 39.4224 28.6531 40.1437V46.2743C28.6531 46.9956 29.0745 47.3562 29.9172 47.3562Z" fill="#F5A137"/>
<path d="M47.6147 39.7829L42.5583 35.4555C42.1369 35.0949 41.2942 35.0949 40.8728 35.4555C40.4515 35.8161 40.4515 36.5374 40.8728 36.898L45.9293 41.2253C46.3506 41.5859 46.3506 41.5859 46.772 41.5859C47.1934 41.5859 47.1934 41.5859 47.6147 41.2253C48.0361 40.8647 48.0361 40.1435 47.6147 39.7829Z" fill="#F5A137"/>
<path d="M53.9353 26.8003C54.7781 26.8003 55.1994 26.4397 55.1994 25.7184C55.1994 24.9971 54.7781 24.6365 53.9353 24.6365H46.772C45.9293 24.6365 45.5079 24.9971 45.5079 25.7184C45.5079 26.4397 45.9293 26.8003 46.772 26.8003H53.9353Z" fill="#F5A137"/>
<path d="M40.8728 15.9812C41.2942 16.3418 41.2942 16.3418 41.7156 16.3418C42.1369 16.3418 42.1369 16.3418 42.5583 15.9812L47.6147 11.6537C48.0361 11.293 48.0361 10.5718 47.6147 10.2111C47.1934 9.85052 46.3506 9.85052 45.9293 10.2111L40.8728 14.5387C40.4515 14.8993 40.4515 15.6205 40.8728 15.9812Z" fill="#F5A137"/>
<path d="M29.4959 12.0144C30.3386 12.0144 30.76 11.6538 30.76 10.9326V5.16266C30.76 4.44143 30.3386 4.08081 29.4959 4.08081C28.6531 4.08081 28.2318 4.44143 28.2318 5.16266V10.9326C28.2318 11.6538 29.0745 12.0144 29.4959 12.0144Z" fill="#F5A137"/>
<path d="M16.8548 16.3418C16.8548 16.3418 17.2761 16.3418 17.6975 16.3418C18.1189 16.3418 18.1189 16.3418 18.5403 15.9812C18.9616 15.6205 18.9616 14.8992 18.5403 14.5386L13.4838 10.5715C13.0624 10.2109 12.2197 10.2109 11.7983 10.5715C11.377 10.9322 11.377 11.6534 11.7983 12.0141L16.8548 16.3418Z" fill="#F5A137"/>
<path d="M13.9052 25.7177C13.9052 25.357 13.0624 24.9963 12.6411 24.9963H5.47779C5.05642 24.9963 4.21368 25.357 4.21368 25.7177C4.21368 26.4391 4.63505 26.7998 5.47779 26.7998H12.6411C13.0624 26.7998 13.9052 26.4391 13.9052 25.7177Z" fill="#F5A137"/>
<path d="M11.7983 41.2253C12.2197 41.5859 12.2197 41.5859 12.6411 41.5859C13.0624 41.5859 13.0624 41.5859 13.4838 41.2253L18.5403 36.898C18.9616 36.5374 18.9616 35.8161 18.5403 35.4555C18.1189 35.0949 17.2761 35.0949 16.8548 35.4555L11.7983 39.7829C11.377 40.1435 11.377 40.8647 11.7983 41.2253Z" fill="#F5A137"/>
<path d="M41.7156 51.3228H42.137C42.5583 50.9621 42.9797 50.6015 42.9797 49.8803L39.1874 41.9466C38.766 41.586 38.3446 41.2253 37.5019 41.2253C37.0805 41.586 36.6591 41.9466 36.6591 42.6678L40.4515 50.6015C40.8729 50.9621 41.2942 51.3228 41.7156 51.3228Z" fill="#F5A137"/>
<path d="M58.149 36.8982H58.5704C58.9918 36.8982 59.4131 36.5375 59.8345 36.1769C60.2559 35.8162 59.8345 35.0949 58.9918 34.7343L49.7216 31.4884C49.3003 31.1278 48.4575 31.4884 48.0362 32.2097C47.6148 32.5704 48.0362 33.2917 48.8789 33.6523L58.149 36.8982Z" fill="#F5A137"/>
<path d="M49.3002 19.948H49.7216L58.9917 16.7022C59.4131 16.3416 59.8345 15.9809 59.8345 15.2596C59.4131 14.5383 58.5704 14.5383 58.149 14.5383L48.8789 18.1448C48.4575 18.5054 48.0361 18.8661 48.0361 19.5874C48.4575 19.5874 48.8789 19.948 49.3002 19.948Z" fill="#F5A137"/>
<path d="M37.9233 10.2112C38.3446 10.2112 38.766 9.85054 39.1874 9.4899L42.9797 1.55584C43.4011 1.1952 42.9797 0.473921 42.1369 0.113281C41.7156 0.113281 40.8728 0.473921 40.8728 0.83456L36.6591 8.76863C36.2378 9.12926 36.6591 9.85054 37.5019 10.2112H37.9233Z" fill="#F5A137"/>
<path d="M21.9112 10.2112H22.3326C22.7539 9.85054 23.1753 9.4899 23.1753 8.76863L19.383 0.83456C18.9616 0.113281 18.1189 0.113281 17.6975 0.113281C16.8548 0.473921 16.8548 0.83456 16.8548 1.55584L21.0685 9.4899C21.0685 9.85054 21.4898 10.2112 21.9112 10.2112Z" fill="#F5A137"/>
<path d="M10.1129 19.5872H10.5342C10.9556 19.5872 11.377 19.2265 11.7983 18.8659C12.2197 18.5053 11.7983 17.784 10.9556 17.4234L1.68548 14.5383C1.26411 14.1777 0.42137 14.5383 0 14.8989C0 15.6202 0.42137 16.3415 0.842739 16.3415L10.1129 19.5872Z" fill="#F5A137"/>
<path d="M1.26411 36.8984H1.68548L10.9556 33.6523C11.7983 33.2917 11.7983 32.5703 11.7983 31.8489C11.377 31.4883 10.5342 31.1276 10.1129 31.4883L0.842739 34.7344C0 35.095 0 35.4557 0 36.1771C0.421369 36.5378 0.842739 36.8984 1.26411 36.8984Z" fill="#F5A137"/>
<path d="M17.6975 51.3232C18.1189 51.3232 18.5403 50.9626 18.9616 50.602L22.754 42.6682C23.1753 42.3076 22.754 41.5863 21.9112 41.2257C21.4899 40.8651 20.6471 41.2257 20.2258 41.947L16.8548 49.8807C16.4334 50.2414 16.8548 50.9626 17.6975 51.3232C17.6975 51.3232 17.6975 50.9626 17.6975 51.3232Z" fill="#F5A137"/>
<path d="M44.6652 25.7183C44.6652 18.5057 37.9232 12.7356 29.4958 12.7356C21.0685 12.7356 14.3265 18.5057 14.3265 25.7183C14.3265 32.9309 21.0685 38.7009 29.4958 38.7009C37.9232 38.7009 44.6652 32.9309 44.6652 25.7183ZM29.9172 36.5372C22.7539 36.5372 17.2761 31.849 17.2761 25.7183C17.2761 19.5876 22.7539 14.8994 29.9172 14.8994C37.0805 14.8994 42.5583 19.5876 42.5583 25.7183C42.5583 31.4883 36.6591 36.5372 29.9172 36.5372Z" fill="#F5A137"/>
<path d="M33.7096 16.3417C33.2882 15.981 32.4454 16.3417 32.0241 17.0629C32.0241 17.7842 32.0241 18.1448 32.8668 18.5054C36.6591 19.5873 38.766 22.4723 38.766 25.7179C38.766 26.4392 39.1874 26.7998 40.0301 26.7998C40.8728 26.7998 41.2942 26.4392 41.2942 25.7179C41.2942 21.3904 38.3446 17.7842 33.7096 16.3417Z" fill="#F5A137"/>
</svg>
