<svg width="42" height="60" viewBox="0 0 42 60" fill="none" xmlns="http://www.w3.org/2000/svg">
<g clip-path="url(#clip0)">
<path d="M0.84507 41.831H4.64789C5.07042 49.8592 10.9859 56.1972 18.5916 57.4648C18.5916 57.4648 19.0141 57.8873 19.0141 58.3099C19.8592 59.1549 20.2817 60 21.1268 60C21.9718 60 22.3944 59.1549 22.8169 58.3099C22.8169 57.8873 23.2394 57.4648 23.2394 57.4648C31.2676 56.1972 37.1831 49.8592 37.1831 41.831H40.9859C41.4085 41.831 41.4085 41.831 41.831 41.4085C41.831 40.9859 41.831 40.9859 41.831 40.5634C41.831 40.5634 37.6056 35.9155 37.6056 32.1127C37.6056 31.6901 37.1831 31.2676 36.7606 31.2676C36.338 31.2676 35.9155 31.2676 35.9155 31.6901C35.9155 35.9155 31.6901 40.1408 31.6901 40.1408C31.2676 40.5634 31.2676 40.5634 31.6901 40.9859C31.6901 41.4085 32.1127 41.4085 32.5352 41.4085H35.493C33.8028 46.4789 29.5775 49.8592 24.0845 50.7042L23.2394 23.662H32.5352C32.9577 23.662 33.3803 23.2394 33.3803 22.8169V18.169C33.3803 17.7465 32.9577 17.3239 32.5352 17.3239H22.8169V14.7887C26.1972 13.9437 28.3099 10.9859 28.3099 7.60563C28.3099 3.38028 24.9296 0 21.1268 0C17.3239 0 13.5211 3.38028 13.5211 7.60563C13.5211 10.9859 16.0563 13.9437 19.0141 14.7887V17.3239H9.71831C9.29577 17.3239 8.87324 17.7465 8.87324 18.169V22.8169C8.87324 23.2394 9.29577 23.662 9.71831 23.662H18.5916L17.7465 51.1268C12.6761 50.2817 8.4507 46.4789 6.76056 41.831H9.71831C10.1408 41.831 10.1408 41.831 10.5634 41.4085C10.5634 40.9859 10.5634 40.9859 10.5634 40.5634C10.5634 40.5634 6.33803 35.9155 6.33803 32.1127C6.33803 31.6901 5.91549 31.2676 5.49296 31.2676C5.07042 31.2676 4.64789 31.6901 4.64789 32.1127C4.64789 36.338 0.422535 40.5634 0.422535 40.5634C0 40.5634 0 40.9859 0 41.4085C0 41.4085 0.422535 41.831 0.84507 41.831ZM36.7606 35.493C37.6056 37.6056 38.8732 39.2958 39.7183 40.1408H33.8028C34.6479 38.8732 35.9155 37.1831 36.7606 35.493ZM15.2113 19.0141H16.0563V21.9718H15.2113V19.0141ZM13.5211 21.9718H12.6761V19.0141H13.5211V21.9718ZM17.3239 19.0141H18.169V21.9718H17.3239V19.0141ZM27.0423 21.9718H26.1972V19.0141H27.0423V21.9718ZM28.3099 19.0141H29.1549V21.9718H28.3099V19.0141ZM24.507 21.9718H24.0845V19.0141H24.9296V21.9718H24.507ZM22.3944 21.9718H21.5493V19.0141H22.3944V21.9718ZM19.4366 19.0141H19.8592V21.9718H19.4366V19.0141ZM31.2676 21.9718H30.8451V19.0141H31.6901V21.9718H31.2676ZM19.8592 10.5634C19.4366 10.5634 19.4366 10.5634 19.4366 10.9859C18.169 10.1408 17.3239 8.87324 17.3239 7.60563C17.3239 5.49296 19.0141 3.80282 21.1268 3.80282C23.2394 3.80282 24.507 5.49296 24.507 7.60563C24.507 8.87324 23.662 10.1408 22.3944 10.5634L21.9718 10.1408C21.9718 10.1408 20.7042 10.1408 19.8592 10.5634ZM15.2113 7.60563C15.2113 4.22535 17.7465 1.69014 21.1268 1.69014C24.507 1.69014 27.0423 4.22535 27.0423 7.60563C27.0423 10.1408 25.3521 12.2535 22.8169 13.0986V12.2535C24.9296 11.4085 26.1972 9.71831 26.1972 7.60563C26.1972 4.64789 24.0845 2.53521 21.1268 2.53521C18.169 2.53521 15.6338 4.64789 15.6338 7.60563C15.6338 9.71831 16.9014 11.831 19.0141 12.2535V13.0986C16.9014 12.2535 15.2113 10.1408 15.2113 7.60563ZM20.7042 11.831H21.1268V17.3239H20.7042V11.831ZM10.5634 19.0141H11.4085V21.9718H10.5634V19.0141ZM18.5916 52.8169C19.4366 52.8169 19.8592 52.3944 19.8592 51.9718L20.7042 23.2394H21.9718L22.8169 51.5493C22.8169 51.9718 23.2394 52.3944 23.662 52.3944C28.7324 51.5493 33.3803 48.5916 35.9155 44.3662C33.8028 50.7042 29.1549 54.9296 23.2394 55.7747C22.3944 55.7747 21.9718 56.6197 21.5493 57.4648C21.1268 57.4648 21.1268 57.8873 21.1268 58.3099C21.1268 58.3099 20.7042 57.8873 20.7042 57.4648C20.2817 56.6197 19.8592 55.7747 19.0141 55.7747C13.0986 54.9296 8.02817 50.7042 6.76056 45.2113C8.87324 49.0141 13.0986 51.9718 18.5916 52.8169ZM5.07042 35.493C5.91549 37.6056 7.1831 39.2958 8.02817 40.1408H2.53521C3.38028 38.8732 4.64789 37.1831 5.07042 35.493Z" fill="#F5A137"/>
</g>
<defs>
<clipPath id="clip0">
<rect width="41.831" height="60" fill="white"/>
</clipPath>
</defs>
</svg>
