<svg width="69" height="52" viewBox="0 0 69 52" fill="none" xmlns="http://www.w3.org/2000/svg">
<g clip-path="url(#clip0)">
<path d="M7.1831 13.0306H12.2535V35.3899C12.2535 35.7505 12.6761 36.1111 12.6761 36.1111L13.9437 36.4718L12.6761 37.193C12.2535 37.193 12.2535 37.5537 12.2535 37.9143V45.8482C12.2535 49.0939 15.6338 51.6184 19.4366 51.6184H62.1127C65.9155 51.6184 69.2958 48.7333 69.2958 45.4876C69.2958 42.2419 65.9155 39.3568 62.1127 39.3568H57.4648V27.8166C57.4648 27.4559 57.4648 27.0953 57.0422 27.0953L55.7746 26.374L56.6197 26.0134C57.0422 26.0134 57.0422 25.6528 57.0422 25.2921V19.8826C57.0422 19.522 56.6197 19.1614 56.1972 19.1614L54.0845 18.8007L56.1972 18.4401C56.6197 18.4401 57.0422 18.0795 57.0422 17.7188V6.89981C56.6197 3.29348 53.662 0.769043 49.8592 0.769043H7.1831C3.38028 0.769043 0 3.65411 0 6.89981C0 10.1455 3.38028 13.0306 7.1831 13.0306ZM7.1831 11.2274C4.22535 11.2274 2.11268 9.06361 2.11268 6.89981C2.11268 5.09665 3.38028 3.65411 5.07042 2.93284C5.49296 2.57221 6.33803 2.57221 7.1831 2.57221C9.71831 2.57221 11.4085 4.01474 11.831 5.81791H7.1831C6.76056 5.81791 6.33803 6.17855 6.33803 6.53918C6.33803 6.89981 6.76056 7.26045 7.1831 7.26045C8.4507 7.26045 9.29577 7.98171 9.29577 9.06361C9.29577 10.5061 8.4507 11.2274 7.1831 11.2274ZM10.5634 11.2274C10.9859 10.8668 10.9859 10.1455 10.9859 9.42425C10.9859 8.70298 10.9859 8.34235 10.5634 7.62108H11.831V10.8668H10.5634V11.2274ZM66.7606 45.8482C66.7606 48.3727 64.6479 50.1758 61.6901 50.1758H24.507C25.7746 49.0939 26.6197 47.6514 26.6197 45.8482C26.6197 44.0451 25.7746 42.6025 24.507 41.5206H62.1127C64.6479 41.5206 66.7606 43.3238 66.7606 45.8482ZM19.4366 41.5206C20.2817 41.5206 21.5493 41.8813 21.9718 42.2419H17.7465C18.169 41.8813 18.5915 41.5206 19.4366 41.5206ZM54.9296 6.89981V16.6369L49.4366 18.0795C49.0141 18.0795 48.5915 18.4401 48.5915 18.8007C48.5915 19.1614 49.0141 19.522 49.4366 19.522L54.9296 20.6039V24.5709L52.3944 25.6528C51.9718 25.6528 51.9718 26.0134 51.9718 26.374C51.9718 26.7347 51.9718 27.0953 52.3944 27.0953L54.9296 28.1772V39.7175H19.8592H19.4366C17.3239 39.7175 15.2113 41.16 15.2113 43.3238C15.2113 43.6844 15.6338 44.0451 16.0563 44.0451H23.662C24.0845 44.4057 24.0845 45.127 24.0845 45.8482C24.0845 48.3727 21.9718 50.1758 19.0141 50.1758C16.4789 50.1758 13.9437 48.3727 13.9437 45.8482V38.6356L16.9014 37.5537C17.3239 37.5537 17.3239 37.193 17.3239 36.8324C17.3239 36.1111 16.9014 36.1111 16.9014 35.7505L14.3662 34.6686V6.89981C14.3662 5.09665 13.5211 3.65411 12.2535 2.57221H49.8592C52.8169 2.57221 54.9296 4.37538 54.9296 6.89981Z" fill="#F5A137"/>
<path d="M46.9014 27.0957L44.7887 28.8988L42.6761 27.0957C42.2535 26.735 41.4084 26.735 40.9859 27.0957C40.5634 27.4563 40.5634 28.1776 40.9859 28.5382L43.0986 30.3414L41.4084 32.1445C40.9859 32.5052 40.9859 32.8658 41.4084 33.2264C41.4084 33.2264 41.831 33.5871 42.2535 33.5871C42.6761 33.5871 42.6761 33.5871 43.0986 33.2264L45.2113 31.4233L46.9014 33.2264C46.9014 33.2264 47.3239 33.5871 47.7465 33.5871C48.169 33.5871 48.169 33.5871 48.5915 33.2264C49.0141 32.8658 49.0141 32.1445 48.5915 31.7839L46.4789 30.3414L48.5915 28.5382C49.0141 28.1776 49.0141 27.4563 48.5915 27.0957C48.169 26.735 47.3239 26.735 46.9014 27.0957Z" fill="#F5A137"/>
<path d="M27.8873 8.34227H28.3099C28.7324 7.98163 29.5775 7.621 30 7.621C30.4225 7.621 30.8451 7.26037 30.8451 6.89973C30.8451 6.5391 30.4225 6.17847 30 6.17847C29.1549 6.17847 28.3099 6.17847 27.4648 6.5391C27.0423 6.5391 26.6197 7.26037 27.0423 7.621C27.0423 7.98163 27.4648 8.34227 27.8873 8.34227Z" fill="#F5A137"/>
<path d="M39.2957 19.5216C39.2957 19.8823 39.7183 20.2429 40.1408 20.2429C40.5633 20.2429 40.9859 19.8823 40.9859 19.161C40.9859 17.7185 40.1408 16.2759 38.8732 15.5547C38.8732 15.194 38.4507 15.194 38.0281 15.5547C37.6056 15.9153 37.6056 16.2759 38.0281 16.6366C38.8732 17.3578 39.2957 18.4397 39.2957 19.5216Z" fill="#F5A137"/>
<path d="M26.6197 14.4734C27.0422 14.4734 27.0422 14.4734 27.4647 14.1128C27.8873 13.7521 27.8873 13.0309 27.4647 12.6702C27.0422 12.3096 26.6197 11.5883 26.6197 10.8671V10.5064C26.6197 10.1458 26.1971 9.42453 25.7746 9.42453C25.3521 9.06389 24.507 9.42453 24.507 9.78516C24.507 10.1458 24.507 10.1458 24.507 10.5064C24.507 11.949 24.9295 13.0309 26.1971 13.7521C26.1971 14.1128 26.6197 14.4734 26.6197 14.4734Z" fill="#F5A137"/>
<path d="M32.9577 24.9315C32.9577 24.5708 32.5352 24.2102 32.1126 24.2102H28.3098C27.8873 24.2102 27.8873 24.2102 27.4647 24.2102C27.0422 24.2102 26.6197 24.5708 26.6197 25.2921C26.6197 25.6527 27.0422 26.0134 27.4647 26.0134C27.8873 26.0134 27.8873 26.0134 28.3098 26.0134H31.6901C32.5352 26.0134 32.9577 25.6527 32.9577 24.9315Z" fill="#F5A137"/>
<path d="M23.2394 29.9802C23.2394 28.8983 23.662 28.177 24.507 27.0951C24.9296 26.7345 24.9296 26.0132 24.507 25.6526C24.0845 25.6526 23.2394 25.6526 23.2394 26.0132C21.9718 27.0951 21.1268 28.5377 21.1268 29.9802C21.1268 30.3408 21.5493 31.0621 21.9718 31.0621C22.8169 31.0621 23.2394 30.7015 23.2394 29.9802Z" fill="#F5A137"/>
<path d="M29.5775 14.4735C29.5775 15.1947 30 15.5554 30.8451 15.5554H34.6479H35.0704C35.493 15.5554 35.9155 15.1947 35.9155 14.8341C35.9155 14.4735 35.493 13.7522 35.0704 13.7522C34.6479 13.7522 34.6479 13.7522 34.2253 13.7522H30.8451C30 13.7522 29.5775 14.1128 29.5775 14.4735Z" fill="#F5A137"/>
<path d="M33.8028 31.4229C33.3803 31.7836 32.5352 32.1442 31.6901 32.5048C31.2676 32.8655 30.8451 33.2261 30.4225 33.5867C30 33.9474 30 34.308 30.4225 34.6686C30.4225 35.0292 30.8451 35.0293 31.2676 35.0293C31.6901 35.0293 31.6901 35.0293 31.6901 35.0293C32.1127 34.6686 32.5352 34.308 32.9577 33.9474C33.8028 33.5867 34.6479 33.2261 35.0704 32.8654C35.493 32.5048 35.493 32.1442 35.493 31.7836C35.0704 31.0623 34.2253 31.0623 33.8028 31.4229Z" fill="#F5A137"/>
<path d="M40.1408 23.4891C40.5633 22.7679 40.5633 22.4072 40.1408 22.0466C39.2957 21.686 38.8732 22.0466 38.4507 22.4072C38.0281 23.1285 36.7605 23.8498 35.9154 23.8498C35.4929 23.8498 35.0704 24.571 35.0704 24.9317C35.0704 25.2923 35.4929 25.6529 35.9154 25.6529C35.9154 25.6529 35.9154 25.6529 36.338 25.6529C38.0281 25.2923 39.2957 24.571 40.1408 23.4891Z" fill="#F5A137"/>
<path d="M27.4648 34.3077C26.1972 34.3077 25.3522 33.5865 24.5071 32.8652C24.0845 32.5046 23.662 32.5046 22.8169 32.8652C22.3944 33.2258 22.3944 33.5865 22.8169 33.9471C24.0845 35.029 25.3522 35.7503 27.0423 36.1109C27.4648 36.1109 27.8874 35.7503 27.8874 35.3896C28.3099 35.029 27.8874 34.3077 27.4648 34.3077Z" fill="#F5A137"/>
<path d="M41.4084 30.3411C41.4084 29.9805 40.9859 29.6198 40.5633 29.6198C39.7183 29.2592 38.8732 29.2592 38.0281 29.6198C37.6056 29.6198 37.1831 29.9805 37.1831 30.7017C37.1831 31.0624 37.6056 31.423 38.0281 31.423C38.0281 31.423 38.0281 31.423 38.4507 31.423C38.8732 31.423 39.7183 31.0624 40.1408 31.0624C40.9859 31.0624 41.4084 30.7017 41.4084 30.3411Z" fill="#F5A137"/>
</g>
<defs>
<clipPath id="clip0">
<rect width="68.8732" height="51.21" fill="white" transform="translate(0 0.769043)"/>
</clipPath>
</defs>
</svg>
