<svg width="69" height="60" viewBox="0 0 69 60" fill="none" xmlns="http://www.w3.org/2000/svg">
<g clip-path="url(#clip0)">
<path d="M10.5634 46.9014C10.9859 47.3239 10.9859 48.5916 10.1408 49.0141C9.71831 49.0141 9.71831 49.4366 9.29578 49.4366C8.87324 49.4366 8.4507 49.4366 8.02817 49.0141C5.49296 44.7887 4.22535 40.1409 4.22535 34.2254V30C4.22535 28.3099 4.22535 27.0423 4.64789 25.3521C5.07042 24.507 5.49296 24.0845 6.33803 24.507C7.1831 24.507 7.60563 25.3521 7.60563 26.1972C7.1831 27.4648 6.76056 28.7324 6.76056 30V34.2254C6.76056 39.2958 8.02817 43.5211 10.5634 46.9014ZM68.0282 5.49296C68.0282 5.91549 67.6056 6.33803 67.1831 6.76056C66.7606 6.76056 58.7324 11.4085 50.2817 11.4085C42.6761 11.4085 35.0704 7.60563 33.3803 6.76056C31.2676 6.76056 30 6.33803 28.7324 5.91549C29.1549 8.4507 29.1549 11.4085 28.3099 13.9437C29.1549 13.9437 30.4225 13.9437 31.2676 13.9437C31.2676 13.9437 31.2676 13.9437 31.6901 13.9437C33.8028 13.0986 35.9155 12.6761 38.8732 12.6761C45.6338 12.6761 51.9718 21.1268 51.9718 30V34.2254C51.9718 49.8592 41.831 60 25.7746 60C10.1408 60 0 49.8592 0 34.2254V30C0 25.7746 1.69014 21.1268 4.22535 17.7465C6.76056 14.3662 10.5634 12.6761 13.9437 12.6761C16.9014 12.6761 19.0141 13.0986 21.1268 13.5211C21.1268 13.5211 21.1268 13.5211 21.5493 13.9437C22.3944 13.9437 23.2394 13.9437 24.507 14.3662C24.0845 11.831 23.2394 8.02817 20.7042 4.22535C20.2817 3.80282 20.2817 3.38028 20.7042 2.95775C20.7042 2.53521 21.1268 2.11268 21.5493 2.11268L25.3521 0C25.3521 0 25.3521 0 25.7746 0C25.7746 0 25.7746 0 26.1972 0C26.1972 0 26.1972 0 26.6197 0C26.6197 0 26.6197 0 27.0423 0L27.4648 0.422535C27.4648 0.422535 27.8873 1.26761 27.8873 2.11268C28.3099 2.95775 30 4.22535 33.8028 4.22535C35.493 3.38028 42.6761 0.422535 50.2817 0.422535C58.7324 0.422535 67.1831 4.22535 67.1831 4.22535C67.6056 4.64789 68.0282 5.07042 68.0282 5.49296ZM24.0845 3.80282C24.9296 5.49296 25.7746 7.60563 26.1972 8.87324C26.1972 6.76056 25.7746 4.64789 25.3521 2.95775L24.0845 3.80282ZM38.8732 15.6338H38.4507C38.8732 16.0563 39.2958 16.4789 39.2958 16.4789C39.7183 16.9014 40.1408 17.7465 39.2958 18.5916C39.2958 18.5916 38.8732 19.0141 38.4507 19.0141C38.0282 19.0141 37.6056 19.0141 37.6056 18.5916C37.6056 18.5916 33.8028 15.2113 26.6197 17.3239C26.6197 17.3239 26.6197 17.3239 26.1972 17.3239H25.7746C18.5915 15.2113 14.7887 18.5916 14.7887 18.5916C14.3662 18.5916 13.9437 19.0141 13.5211 19.0141C13.0986 19.0141 12.6761 19.0141 12.2535 18.5916C12.2535 17.7465 12.2535 16.9014 12.6761 16.4789C12.6761 16.4789 13.0986 16.0563 14.3662 15.6338H13.9437C11.4085 15.2113 8.4507 16.9014 6.33803 19.8592C4.22535 22.3944 2.95775 26.1972 2.95775 30V34.2254C2.95775 48.169 11.831 57.0423 26.1972 57.0423C40.5634 57.0423 49.4366 48.169 49.4366 34.2254V30C49.0141 22.3944 43.5211 15.6338 38.8732 15.6338ZM62.9577 5.49296C60 4.22535 54.9296 2.95775 50.2817 2.95775C45.2113 2.95775 40.5634 4.22535 37.6056 5.49296C40.5634 6.76056 45.6338 8.4507 50.2817 8.4507C54.9296 8.4507 60 6.76056 62.9577 5.49296ZM34.2254 23.662C32.9577 23.662 32.1127 24.507 32.1127 25.7746C32.1127 27.0423 32.9577 27.8873 34.2254 27.8873C35.493 27.8873 36.338 27.0423 36.338 25.7746C36.338 24.507 35.493 23.662 34.2254 23.662ZM38.0282 27.4648C37.1831 27.4648 36.338 28.7324 36.338 29.5775C36.338 30.8451 37.1831 31.6901 38.4507 31.6901C39.7183 31.6901 40.5634 30.8451 40.5634 29.5775C40.1409 28.7324 39.2958 27.4648 38.0282 27.4648ZM44.3662 29.5775C45.6338 29.5775 46.4789 28.7324 46.4789 27.4648C46.4789 26.1972 45.6338 25.3521 44.3662 25.3521C43.0986 25.3521 42.2535 26.1972 42.2535 27.4648C42.2535 28.7324 43.0986 29.5775 44.3662 29.5775ZM38.0282 23.662C38.0282 24.9296 38.8732 25.7746 40.1408 25.7746C41.4085 25.7746 42.2535 24.9296 42.2535 23.662C42.2535 22.3944 41.4085 21.5493 40.1408 21.5493C38.8732 21.5493 38.0282 22.3944 38.0282 23.662ZM42.2535 31.6901C40.9859 31.6901 40.1408 32.5352 40.1408 33.8028C40.1408 35.0704 40.9859 35.9155 42.2535 35.9155C43.5211 35.9155 44.3662 35.0704 44.3662 33.8028C44.3662 32.5352 43.0986 31.6901 42.2535 31.6901Z" fill="#F5A137"/>
</g>
<defs>
<clipPath id="clip0">
<rect width="68.0282" height="60" fill="white"/>
</clipPath>
</defs>
</svg>
