<svg width="60" height="60" viewBox="0 0 60 60" fill="none" xmlns="http://www.w3.org/2000/svg">
<g clip-path="url(#clip0)">
<path d="M29.1549 59.5775H29.5775H30C31.2676 58.7324 59.1549 39.2958 59.1549 15.2113C59.1549 6.76056 52.3944 0 43.9437 0C37.6056 0 31.6901 4.22535 29.5775 9.71831C27.4648 4.22535 21.9718 0 15.2113 0C6.76056 0 0 6.76056 0 15.2113C0 39.2958 27.8873 58.7324 29.1549 59.5775ZM15.2113 2.11268C22.3944 2.11268 28.7324 8.02817 28.7324 15.6338C28.7324 16.0563 29.1549 16.4789 29.5775 16.4789C30 16.4789 30.4225 16.0563 30.4225 15.6338C30.4225 8.4507 36.338 2.11268 43.9437 2.11268C51.1268 2.11268 57.4648 8.02817 57.4648 15.6338C57.4648 36.7606 33.8028 54.9296 29.5775 57.8873C25.7746 54.9296 1.69014 36.7606 1.69014 15.6338C2.11268 8.02817 8.02817 2.11268 15.2113 2.11268Z" fill="#F5A137"/>
<path d="M32.5352 14.3659C33.3803 14.3659 33.3803 13.9433 33.8028 13.5208C34.2253 10.1405 36.7605 7.18277 40.1408 5.49263C40.5634 5.49263 40.9859 4.64756 40.5634 4.22503C40.1408 3.80249 39.7183 3.80249 39.2958 3.80249C35.0704 5.49263 32.5352 8.87291 31.6901 13.0983C31.6901 13.5208 32.1127 14.3659 32.5352 14.3659Z" fill="#F5A137"/>
<path d="M8.87323 30.4227C6.33801 24.9298 4.64787 20.2819 4.64787 15.2115C4.64787 11.8312 6.33801 8.87345 8.87323 6.76078C9.29576 6.33824 9.29576 5.91571 8.87323 5.49317C8.87323 5.07064 8.45069 5.07064 8.02816 5.49317C4.64787 7.60585 2.95773 11.4087 2.95773 15.2115C2.95773 20.2819 4.22534 25.7749 7.18308 31.2678C7.18308 31.6904 7.60562 31.6904 8.02816 31.6904H8.45069C8.87323 31.2678 8.87323 30.8453 8.87323 30.4227Z" fill="#F5A137"/>
<path d="M10.1409 32.9582C10.1409 32.5356 9.29578 32.1131 8.87325 32.5356C8.45071 32.9582 8.45071 33.3807 8.45071 33.8032C9.71832 35.9159 11.4085 38.4511 13.0986 40.5638C13.0986 40.9863 13.5211 40.9863 13.9437 40.9863C14.3662 40.9863 14.3662 40.9863 14.3662 40.9863C14.7887 40.5638 14.7887 40.1412 14.3662 39.7187C13.0986 37.1835 11.4085 35.0708 10.1409 32.9582Z" fill="#F5A137"/>
</g>
<defs>
<clipPath id="clip0">
<rect width="59.1549" height="60" fill="white"/>
</clipPath>
</defs>
</svg>
