<svg width="70" height="52" viewBox="0 0 70 52" fill="none" xmlns="http://www.w3.org/2000/svg">
<g clip-path="url(#clip0)">
<path d="M65.0704 0.113281H4.22535C1.69014 0.113281 0 1.55582 0 3.71962V39.783C0 41.5861 1.69014 43.3893 4.22535 43.3893H29.1549C28.7324 45.9137 26.1972 48.0775 23.2394 48.0775C22.3944 48.0775 21.5493 48.7988 21.5493 49.8807C21.5493 50.9626 22.3944 51.6839 23.662 51.6839H46.9014C48.169 51.6839 49.0141 50.9626 49.0141 49.8807C49.0141 49.1594 48.169 48.4382 47.324 48.0775C44.3662 48.0775 41.4085 45.9137 41.4085 43.3893H66.338C68.4507 43.3893 70.5634 41.9468 70.5634 39.783V3.71962C69.2958 1.55582 67.1831 0.113281 65.0704 0.113281ZM46.0563 49.1594C46.4789 49.1594 46.4789 49.5201 46.0563 49.1594C46.4789 49.5201 46.0563 49.8807 46.0563 49.8807H22.8169C22.8169 49.8807 22.3944 49.8807 22.3944 49.5201C22.3944 49.5201 22.3944 49.1594 22.8169 49.1594H46.0563ZM41.4085 47.7169H27.4648C29.1549 46.635 30.4225 44.8318 30.4225 43.0287H38.4507C38.8732 45.1925 39.7183 46.635 41.4085 47.7169ZM67.6056 39.783C67.6056 40.8649 66.338 41.9468 65.0704 41.9468H4.22535C2.95775 41.9468 1.69014 40.8649 1.69014 39.783V3.71962C1.69014 2.63772 2.95775 1.55582 4.22535 1.55582H65.493C66.338 1.55582 67.6056 2.27708 67.6056 3.71962V39.783Z" fill="#F5A137"/>
<path d="M65.9155 4.08057H2.95774C2.53521 4.08057 2.11267 4.4412 2.11267 4.80183V36.5376C2.11267 36.8982 2.53521 37.2588 2.95774 37.2588H65.9155C66.338 37.2588 66.7606 36.8982 66.7606 36.5376V4.80183C66.7606 4.4412 66.338 4.08057 65.9155 4.08057ZM65.0704 35.8163H3.80281V5.5231H65.0704V35.8163Z" fill="#F5A137"/>
<path d="M33.3803 3.35904H35.493C35.9155 3.35904 36.3381 2.9984 36.3381 2.63777C36.3381 2.27714 35.9155 1.9165 35.493 1.9165H33.3803C32.9578 1.9165 32.5352 2.27714 32.5352 2.63777C32.5352 2.9984 32.9578 3.35904 33.3803 3.35904Z" fill="#F5A137"/>
</g>
<defs>
<clipPath id="clip0">
<rect width="69.2958" height="51.21" fill="white" transform="translate(0 0.113281)"/>
</clipPath>
</defs>
</svg>
