<svg width="47" height="38" viewBox="0 0 47 38" fill="none" xmlns="http://www.w3.org/2000/svg">
<path d="M0 38C0 33.8242 0.140299 28.8132 0.280597 23.1062C0.561194 15.033 1.82388 9.18681 4.20896 5.42857C6.59403 1.67033 10.6627 0 16.5552 0L18.2388 6.82051C15.0119 6.95971 12.7672 7.93407 11.6448 10.022C10.5224 11.9707 9.96119 14.8938 9.96119 18.7912H19.3612V37.8608H0V38ZM27.6388 38C27.6388 33.8242 27.7791 28.8132 27.9194 23.1062C28.2 15.033 29.4627 9.18681 31.8478 5.42857C34.2328 1.67033 38.3015 0 44.194 0L45.8776 6.82051C42.6507 6.95971 40.406 7.93407 39.2836 10.022C38.1612 11.9707 37.6 14.8938 37.6 18.7912H47V37.8608H27.6388V38Z" fill="white"/>
</svg>
