<?xml version="1.0" encoding="utf-8"?>
<!-- Generator: Adobe Illustrator 21.1.0, SVG Export Plug-In . SVG Version: 6.00 Build 0)  -->
<svg version="1.1" id="Layer_1" xmlns="http://www.w3.org/2000/svg" xmlns:xlink="http://www.w3.org/1999/xlink" x="0px" y="0px"
	 viewBox="0 0 18 14.1" style="enable-background:new 0 0 18 14.1;" xml:space="preserve">
<style type="text/css">
	.st0{fill:#F6A136;}
</style>
<path class="st0" d="M18,4.6c-0.3,0.3-0.6,0.6-1,0.9c-1.7,1.1-3.4,2.3-5,3.5c-0.8,0.6-1.9,1.4-3,1.4h0h0c-1.1,0-2.1-0.8-3-1.4
	C4.4,7.7,2.7,6.6,1,5.4C0.6,5.2,0.3,4.9,0,4.6v8c0,0.9,0.7,1.6,1.6,1.6h14.8c0.9,0,1.6-0.7,1.6-1.6V4.6z M18,1.6
	C18,0.7,17.3,0,16.4,0H1.6C0.5,0,0,0.8,0,1.8c0,0.9,1,2,1.7,2.5c1.6,1.1,3.1,2.2,4.7,3.3C7.1,8.1,8.2,9,9,9h0h0
	c0.8,0,1.9-0.9,2.6-1.4c1.6-1.1,3.1-2.2,4.7-3.3C17.2,3.7,18,2.7,18,1.6z"/>
</svg>
