<?xml version="1.0" encoding="utf-8"?>
<!-- Generator: Adobe Illustrator 21.1.0, SVG Export Plug-In . SVG Version: 6.00 Build 0)  -->
<svg version="1.1" id="Layer_1" xmlns="http://www.w3.org/2000/svg" xmlns:xlink="http://www.w3.org/1999/xlink" x="0px" y="0px"
	 viewBox="0 0 30 30.1" style="enable-background:new 0 0 30 30.1;" xml:space="preserve">
<style type="text/css">
	.st0{fill:#F6A136;}
</style>
<g>
	<path class="st0" d="M15,0L15,0C6.7,0,0,6.7,0,15v0.1c0,8.3,6.7,15,15,15h0c8.3,0,15-6.7,15-15V15C30,6.7,23.3,0,15,0z M22.9,22.9
		c-1,1-2.3,1.5-3.7,1.5c-0.9,0-1.8-0.2-2.6-0.7c-0.5,0.1-1,0.1-1.6,0.1c-1.2,0-2.4-0.2-3.4-0.7c-1.1-0.4-2-1.1-2.8-1.9
		c-0.8-0.8-1.5-1.8-1.9-2.8c-0.5-1.1-0.7-2.3-0.7-3.5c0-0.5,0-1,0.1-1.5c-0.4-0.8-0.7-1.7-0.7-2.6c0-1.4,0.5-2.7,1.5-3.7
		c1-1,2.3-1.5,3.7-1.5c0.9,0,1.7,0.2,2.5,0.6c0,0,0,0,0,0c0.5-0.1,1.1-0.2,1.7-0.2c1.2,0,2.4,0.2,3.4,0.7c1.1,0.4,2,1.1,2.8,1.9
		c0.8,0.8,1.5,1.8,1.9,2.8c0.5,1.1,0.7,2.3,0.7,3.5c0,0.5-0.1,1.1-0.1,1.6c0.4,0.8,0.7,1.7,0.7,2.6C24.4,20.6,23.8,21.9,22.9,22.9z"
		/>
	<path class="st0" d="M16.7,14l-2.1-0.5c-0.8-0.2-1.7-0.4-1.7-1.2c0-0.7,0.6-1.3,1.8-1.3c2.3,0,2.1,1.6,3.3,1.6c0.6,0,1.1-0.4,1.1-1
		c0-1.4-2.3-2.5-4.2-2.5c-2.1,0-4.3,0.9-4.3,3.3c0,1.1,0.4,2.4,2.7,2.9l2.8,0.7c0.8,0.2,1.1,0.7,1.1,1.1c0,0.7-0.7,1.4-2,1.4
		c-2.5,0-2.2-1.9-3.5-1.9c-0.6,0-1,0.4-1,1c0,1.2,1.4,2.7,4.6,2.7c3,0,4.5-1.4,4.5-3.4C19.5,15.8,19,14.5,16.7,14z"/>
</g>
</svg>
