<?xml version="1.0" encoding="utf-8"?>
<!-- Generator: Adobe Illustrator 21.1.0, SVG Export Plug-In . SVG Version: 6.00 Build 0)  -->
<svg version="1.1" id="Layer_1" xmlns="http://www.w3.org/2000/svg" xmlns:xlink="http://www.w3.org/1999/xlink" x="0px" y="0px"
	 viewBox="0 0 37 20" style="enable-background:new 0 0 37 20;" xml:space="preserve">
<style type="text/css">
	.st0{opacity:0.5;fill:#FAB55F;enable-background:new    ;}
	.st1{fill:#F6A136;}
	.st2{fill:none;stroke:url(#SVGID_1_);stroke-width:0.5;}
	.st3{fill:none;stroke:url(#SVGID_2_);stroke-width:0.5;}
</style>
<path class="st0" d="M34,10c0,3.9-3.1,7-7,7H7c-3.9,0-7-3.1-7-7s3.1-7,7-7h20C30.9,3,34,6.1,34,10z"/>
<g>
	<path class="st1" d="M27,20c5.5,0,10-4.5,10-10c0-5.5-4.5-10-10-10S17,4.5,17,10C17,15.5,21.5,20,27,20z"/>
	
		<linearGradient id="SVGID_1_" gradientUnits="userSpaceOnUse" x1="27" y1="21.89" x2="27" y2="2.0857" gradientTransform="matrix(1 0 0 -1 0 21.89)">
		<stop  offset="0" style="stop-color:#000000;stop-opacity:0"/>
		<stop  offset="0.8" style="stop-color:#000000;stop-opacity:2.000000e-02"/>
		<stop  offset="1" style="stop-color:#000000;stop-opacity:4.000000e-02"/>
	</linearGradient>
	<path class="st2" d="M36.8,10c0,5.4-4.4,9.8-9.8,9.8s-9.8-4.4-9.8-9.8c0-5.4,4.4-9.8,9.8-9.8S36.8,4.6,36.8,10z"/>
	
		<linearGradient id="SVGID_2_" gradientUnits="userSpaceOnUse" x1="27" y1="21.89" x2="27" y2="1.89" gradientTransform="matrix(1 0 0 -1 0 21.89)">
		<stop  offset="0" style="stop-color:#FFFFFF;stop-opacity:0.12"/>
		<stop  offset="0.2" style="stop-color:#FFFFFF;stop-opacity:6.000000e-02"/>
		<stop  offset="1" style="stop-color:#FFFFFF;stop-opacity:0"/>
	</linearGradient>
	<path class="st3" d="M36.8,10c0,5.4-4.4,9.8-9.8,9.8s-9.8-4.4-9.8-9.8c0-5.4,4.4-9.8,9.8-9.8S36.8,4.6,36.8,10z"/>
</g>
</svg>
