<?xml version="1.0" encoding="utf-8"?>
<!-- Generator: Adobe Illustrator 21.1.0, SVG Export Plug-In . SVG Version: 6.00 Build 0)  -->
<svg version="1.1" id="Layer_1" xmlns="http://www.w3.org/2000/svg" xmlns:xlink="http://www.w3.org/1999/xlink" x="0px" y="0px"
	 viewBox="0 0 37 20" style="enable-background:new 0 0 37 20;" xml:space="preserve">
<style type="text/css">
	.st0{fill:#221F1F;fill-opacity:0.26;}
	.st1{fill:#F1F1F1;}
	.st2{fill:none;stroke:url(#SVGID_1_);stroke-width:0.5;}
	.st3{fill:none;stroke:url(#SVGID_2_);stroke-width:0.5;}
</style>
<path class="st0" d="M30,17H10c-3.9,0-7-3.1-7-7s3.1-7,7-7h20c3.9,0,7,3.1,7,7S33.9,17,30,17z"/>
<g>
	<path class="st1" d="M10,20c5.5,0,10-4.5,10-10c0-5.5-4.5-10-10-10C4.5,0,0,4.5,0,10C0,15.5,4.5,20,10,20z"/>
	
		<linearGradient id="SVGID_1_" gradientUnits="userSpaceOnUse" x1="10" y1="21.89" x2="10" y2="2.0857" gradientTransform="matrix(1 0 0 -1 0 21.89)">
		<stop  offset="0" style="stop-color:#000000;stop-opacity:0"/>
		<stop  offset="0.8" style="stop-color:#000000;stop-opacity:2.000000e-02"/>
		<stop  offset="1" style="stop-color:#000000;stop-opacity:4.000000e-02"/>
	</linearGradient>
	<path class="st2" d="M19.8,10c0,5.4-4.4,9.8-9.8,9.8c-5.4,0-9.8-4.4-9.8-9.8c0-5.4,4.4-9.8,9.8-9.8C15.4,0.3,19.8,4.6,19.8,10z"/>
	
		<linearGradient id="SVGID_2_" gradientUnits="userSpaceOnUse" x1="10" y1="21.89" x2="10" y2="1.89" gradientTransform="matrix(1 0 0 -1 0 21.89)">
		<stop  offset="0" style="stop-color:#FFFFFF;stop-opacity:0.12"/>
		<stop  offset="0.2" style="stop-color:#FFFFFF;stop-opacity:6.000000e-02"/>
		<stop  offset="1" style="stop-color:#FFFFFF;stop-opacity:0"/>
	</linearGradient>
	<path class="st3" d="M19.8,10c0,5.4-4.4,9.8-9.8,9.8c-5.4,0-9.8-4.4-9.8-9.8c0-5.4,4.4-9.8,9.8-9.8C15.4,0.3,19.8,4.6,19.8,10z"/>
</g>
</svg>
